<svg width="154" height="22" viewBox="0 0 154 22" fill="none" xmlns="http://www.w3.org/2000/svg">
<path d="M22.939 2.5L33 19.5H27.6677L22.939 11.3864L21.2287 14.1875L18.5122 9.84091L22.939 2.5Z" fill="white"/>
<path d="M5.33232 19.5H0L7.64634 6.75L10.2622 11.0966L5.33232 19.5Z" fill="white"/>
<path d="M7.04285 2.5H20.927L18.613 6.75H14.6892L22.4361 19.5H7.24407L9.75931 15.0568H14.6892L7.04285 2.5Z" fill="#FF4C4C"/>
<path d="M41.26 17V4.4H44.194L49.414 12.968H47.866L52.942 4.4H55.876L55.912 17H52.636L52.6 9.386H53.158L49.36 15.758H47.776L43.87 9.386H44.554V17H41.26ZM65.8678 17.252C64.8598 17.252 63.9298 17.09 63.0778 16.766C62.2258 16.442 61.4818 15.986 60.8458 15.398C60.2218 14.798 59.7358 14.102 59.3878 13.31C59.0398 12.518 58.8658 11.648 58.8658 10.7C58.8658 9.752 59.0398 8.882 59.3878 8.09C59.7358 7.298 60.2218 6.608 60.8458 6.02C61.4818 5.42 62.2258 4.958 63.0778 4.634C63.9298 4.31 64.8598 4.148 65.8678 4.148C66.8878 4.148 67.8178 4.31 68.6578 4.634C69.5098 4.958 70.2478 5.42 70.8718 6.02C71.4958 6.608 71.9818 7.298 72.3298 8.09C72.6898 8.882 72.8698 9.752 72.8698 10.7C72.8698 11.648 72.6898 12.524 72.3298 13.328C71.9818 14.12 71.4958 14.81 70.8718 15.398C70.2478 15.986 69.5098 16.442 68.6578 16.766C67.8178 17.09 66.8878 17.252 65.8678 17.252ZM65.8678 14.3C66.3478 14.3 66.7918 14.216 67.1998 14.048C67.6198 13.88 67.9798 13.64 68.2798 13.328C68.5918 13.004 68.8318 12.62 68.9998 12.176C69.1798 11.732 69.2698 11.24 69.2698 10.7C69.2698 10.148 69.1798 9.656 68.9998 9.224C68.8318 8.78 68.5918 8.402 68.2798 8.09C67.9798 7.766 67.6198 7.52 67.1998 7.352C66.7918 7.184 66.3478 7.1 65.8678 7.1C65.3878 7.1 64.9378 7.184 64.5178 7.352C64.1098 7.52 63.7498 7.766 63.4378 8.09C63.1378 8.402 62.8978 8.78 62.7178 9.224C62.5498 9.656 62.4658 10.148 62.4658 10.7C62.4658 11.24 62.5498 11.732 62.7178 12.176C62.8978 12.62 63.1378 13.004 63.4378 13.328C63.7498 13.64 64.1098 13.88 64.5178 14.048C64.9378 14.216 65.3878 14.3 65.8678 14.3ZM79.2646 17L73.8826 4.4H77.7346L82.2706 15.308H80.0026L84.6466 4.4H88.1746L82.7746 17H79.2646ZM89.9922 17V4.4H93.5562V17H89.9922Z" fill="white"/>
<path d="M96.5418 17V14.768L103.958 5.966L104.39 7.226H96.7038V4.4H107.558V6.632L100.142 15.434L99.7098 14.174H107.828V17H96.5418ZM116.717 17.252C115.709 17.252 114.779 17.09 113.927 16.766C113.075 16.442 112.331 15.986 111.695 15.398C111.071 14.798 110.585 14.102 110.237 13.31C109.889 12.518 109.715 11.648 109.715 10.7C109.715 9.752 109.889 8.882 110.237 8.09C110.585 7.298 111.071 6.608 111.695 6.02C112.331 5.42 113.075 4.958 113.927 4.634C114.779 4.31 115.709 4.148 116.717 4.148C117.737 4.148 118.667 4.31 119.507 4.634C120.359 4.958 121.097 5.42 121.721 6.02C122.345 6.608 122.831 7.298 123.179 8.09C123.539 8.882 123.719 9.752 123.719 10.7C123.719 11.648 123.539 12.524 123.179 13.328C122.831 14.12 122.345 14.81 121.721 15.398C121.097 15.986 120.359 16.442 119.507 16.766C118.667 17.09 117.737 17.252 116.717 17.252ZM116.717 14.3C117.197 14.3 117.641 14.216 118.049 14.048C118.469 13.88 118.829 13.64 119.129 13.328C119.441 13.004 119.681 12.62 119.849 12.176C120.029 11.732 120.119 11.24 120.119 10.7C120.119 10.148 120.029 9.656 119.849 9.224C119.681 8.78 119.441 8.402 119.129 8.09C118.829 7.766 118.469 7.52 118.049 7.352C117.641 7.184 117.197 7.1 116.717 7.1C116.237 7.1 115.787 7.184 115.367 7.352C114.959 7.52 114.599 7.766 114.287 8.09C113.987 8.402 113.747 8.78 113.567 9.224C113.399 9.656 113.315 10.148 113.315 10.7C113.315 11.24 113.399 11.732 113.567 12.176C113.747 12.62 113.987 13.004 114.287 13.328C114.599 13.64 114.959 13.88 115.367 14.048C115.787 14.216 116.237 14.3 116.717 14.3ZM126.666 17V4.4H129.6L136.548 12.788H135.162V4.4H138.654V17H135.72L128.772 8.612H130.158V17H126.666ZM145.524 9.278H151.374V11.942H145.524V9.278ZM145.776 14.246H152.364V17H142.248V4.4H152.13V7.154H145.776V14.246Z" fill="#FF4C4C"/>
</svg>
